Coordinates
version=1
nRows=12
nColumns=46
inDegrees=yes

Units are S.I. units (second, meters, Newtons, ...)
Angles are in degrees.

endheader
time	pelvis_tilt	pelvis_list	pelvis_rotation	pelvis_tx	pelvis_ty	pelvis_tz	bb_angle	bb_tx	bb_ty	bb_tz	hip_flexion_r	hip_adduction_r	hip_rotation_r	knee_angle_r	knee_angle_r_beta	ankle_angle_r	subtalar_angle_r	mtp_angle_r	crank_angle_r	hip_flexion_l	hip_adduction_l	hip_rotation_l	knee_angle_l	knee_angle_l_beta	ankle_angle_l	subtalar_angle_l	mtp_angle_l	crank_angle_l	lumbar_extension	lumbar_bending	lumbar_rotation	arm_flex_r	arm_add_r	arm_rot_r	elbow_flex_r	pro_sup_r	wrist_flex_r	wrist_dev_r	arm_flex_l	arm_add_l	arm_rot_l	elbow_flex_l	pro_sup_l	wrist_flex_l	wrist_dev_l
      7.50500000	    -20.96669835	     -4.41201934	      4.45865572	      0.36284442	      1.13335256	     -0.27184348	      0.00000000	      0.50000000	      0.00000000	      0.25000000	     53.34247568	     -3.94719515	     -2.32700353	     87.53573855	      1.52778685	    -31.86329324	    -18.09746187	      0.00000000	      0.00000000	     55.79506470	      0.63278400	     10.93383924	     58.95834291	      1.02901721	     -3.63901654	    -16.05762415	      0.00000000	      0.00000000	    -64.93915329	      2.29574778	     -4.49789439	     52.64160681	    -18.69381910	     19.06586718	     73.58626617	     51.13592640	      0.00000000	      0.00000000	     49.66074144	    -24.48721717	     23.68611622	     88.52193442	     50.94245967	      0.00000000	      0.00000000
      7.51000000	    -20.90275231	     -5.08084972	      4.32972991	      0.36280830	      1.13227112	     -0.27162496	      0.00000000	      0.50000000	      0.00000000	      0.25000000	     54.68345770	     -3.51725437	     -2.62376111	     89.76278349	      1.56665612	    -31.02685017	    -18.06367324	      0.00000000	      0.00000000	     54.40112413	     -0.22264960	     11.25259655	     56.84211634	      0.99208208	     -4.67416285	    -15.63044379	      0.00000000	      0.00000000	    -64.82672845	      2.80573831	     -3.91162026	     52.86970287	    -18.68631017	     19.41444971	     73.57148976	     51.16694705	      0.00000000	      0.00000000	     49.19090162	    -24.49821198	     23.43791445	     88.58435010	     50.92918092	      0.00000000	      0.00000000
      7.51500000	    -20.85381114	     -5.57287738	      4.22590054	      0.36268956	      1.13108701	     -0.27176063	      0.00000000	      0.50000000	      0.00000000	      0.25000000	     56.08841138	     -3.37479710	     -2.79137325	     92.09772752	      1.60740858	    -29.42056391	    -17.16403972	      0.00000000	      0.00000000	     52.97787989	     -0.88485973	     11.42739144	     54.70357387	      0.95475748	     -6.01800879	    -15.93506455	      0.00000000	      0.00000000	    -64.70638300	      3.41043228	     -4.11496459	     54.08061906	    -18.63416973	     21.99807576	     72.59266528	     51.37748018	      0.00000000	      0.00000000	     47.53934159	    -24.72126997	     21.24082416	     89.79582540	     50.93958510	      0.00000000	      0.00000000
      7.52000000	    -20.79914270	     -6.12818027	      4.06345775	      0.36271718	      1.13004542	     -0.27163339	      0.00000000	      0.50000000	      0.00000000	      0.25000000	     57.44906558	     -3.14077984	     -3.04040726	     94.31154189	      1.64604693	    -27.86406046	    -16.61538781	      0.00000000	      0.00000000	     51.54019619	     -1.72429293	     11.52504032	     52.58215822	      0.91773179	     -7.13512970	    -15.78238199	      0.00000000	      0.00000000	    -64.55658518	      3.85438164	     -3.59366061	     54.23662481	    -18.60537126	     22.32383430	     72.58248468	     51.41976362	      0.00000000	      0.00000000	     47.05297143	    -24.66520290	     21.00437423	     89.76832759	     50.91332383	      0.00000000	      0.00000000
      7.52500000	    -20.79650291	     -6.80327752	      3.82841106	      0.36279277	      1.12905576	     -0.27129080	      0.00000000	      0.50000000	      0.00000000	      0.25000000	     58.86224255	     -2.77832818	     -3.45272787	     96.40782867	      1.68263403	    -26.65626099	    -16.72959910	      0.00000000	      0.00000000	     50.13245774	     -2.70859307	     11.75525204	     50.50087974	      0.88140663	     -7.94819505	    -15.38950477	      0.00000000	      0.00000000	    -64.42036666	      4.29693447	     -2.88613288	     54.36793816	    -18.52218561	     22.50072584	     72.61397454	     51.43708291	      0.00000000	      0.00000000	     46.64122704	    -24.67729227	     20.93076398	     89.73368609	     50.90010590	      0.00000000	      0.00000000
      7.53000000	    -20.75486011	     -7.10608160	      3.61827444	      0.36273207	      1.12813097	     -0.27138175	      0.00000000	      0.50000000	      0.00000000	      0.25000000	     60.26373773	     -2.80658659	     -3.49059838	     98.59387388	      1.72078772	    -24.39758181	    -15.49613748	      0.00000000	      0.00000000	     48.62539393	     -3.43456611	     11.38727652	     48.34420142	      0.84376549	     -9.34878197	    -15.56395406	      0.00000000	      0.00000000	    -64.27135120	      4.64672619	     -2.52909259	     54.58272276	    -18.69444425	     23.31847256	     72.66210750	     51.53887511	      0.00000000	      0.00000000	     46.04118880	    -24.44022663	     20.32003671	     89.69365570	     50.83799924	      0.00000000	      0.00000000
      7.53500000	    -20.75697199	     -7.53349775	      3.37835013	      0.36278791	      1.12735223	     -0.27129095	      0.00000000	      0.50000000	      0.00000000	      0.25000000	     61.66783155	     -2.76963124	     -3.77511925	    100.57150010	      1.75530381	    -22.71867325	    -15.06052423	      0.00000000	      0.00000000	     47.15069442	     -4.24863960	     11.21825387	     46.24869295	      0.80719197	    -10.43153451	    -15.41953741	      0.00000000	      0.00000000	    -64.17272638	      5.05179901	     -2.12106194	     54.90196672	    -18.67183325	     24.06578887	     72.63668011	     51.62601658	      0.00000000	      0.00000000	     45.43045624	    -24.34616729	     19.67539375	     89.72644986	     50.78895305	      0.00000000	      0.00000000
      7.54000000	    -20.79150949	     -7.90674856	      3.03831726	      0.36289221	      1.12655119	     -0.27090769	      0.00000000	      0.50000000	      0.00000000	      0.25000000	     63.10311621	     -2.65430219	     -4.00299133	    102.46870052	      1.78841620	    -21.11494309	    -15.02603685	      0.00000000	      0.00000000	     45.72019995	     -5.15827989	     10.72281936	     44.24247487	      0.77217686	    -11.39994244	    -15.10836279	      0.00000000	      0.00000000	    -63.96940560	      5.31369716	     -1.66788081	     55.07203841	    -18.65271499	     24.57591205	     72.61531720	     51.68829337	      0.00000000	      0.00000000	     44.87988718	    -24.30530076	     19.32363242	     89.70967730	     50.76396389	      0.00000000	      0.00000000
      7.54500000	    -20.88097219	     -8.17638316	      2.66810462	      0.36296795	      1.12581132	     -0.27058297	      0.00000000	      0.50000000	      0.00000000	      0.25000000	     64.61881781	     -2.65486535	     -4.13836812	    104.25269442	      1.81955277	    -19.54841694	    -14.59693069	      0.00000000	      0.00000000	     44.31021346	     -5.98010884	     10.15617570	     42.29911289	      0.73825879	    -12.27306197	    -14.65362368	      0.00000000	      0.00000000	    -63.82022562	      5.51556796	     -1.30264968	     55.29560478	    -18.63256146	     25.11352048	     72.62865357	     51.75727911	      0.00000000	      0.00000000	     44.37957339	    -24.27493403	     18.89981611	     89.66184860	     50.72691016	      0.00000000	      0.00000000
      7.55000000	    -20.93013385	     -8.38087049	      2.32349910	      0.36316851	      1.12519796	     -0.27029539	      0.00000000	      0.50000000	      0.00000000	      0.25000000	     66.02283627	     -2.70534126	     -4.25043193	    105.88251408	      1.84799849	    -18.01413007	    -14.19134247	      0.00000000	      0.00000000	     42.87566326	     -6.72044783	      9.52080407	     40.47382419	      0.70640149	    -12.90753545	    -14.30440651	      0.00000000	      0.00000000	    -63.68240780	      5.71947444	     -0.96135982	     55.49503632	    -18.62967268	     25.57168897	     72.66921074	     51.82040120	      0.00000000	      0.00000000	     43.90504077	    -24.24450746	     18.50958220	     89.61265463	     50.69257674	      0.00000000	      0.00000000
      7.55500000	    -21.01035494	     -8.51390291	      1.92596586	      0.36335898	      1.12471196	     -0.26981027	      0.00000000	      0.50000000	      0.00000000	      0.25000000	     67.45431450	     -2.77801618	     -4.32689058	    107.36834472	      1.87393113	    -16.63899865	    -13.88022979	      0.00000000	      0.00000000	     41.47077282	     -7.44915766	      8.70023409	     38.70878355	      0.67559572	    -13.60950889	    -13.54985445	      0.00000000	      0.00000000	    -63.56994215	      5.83995867	     -0.68124936	     55.70127914	    -18.62042173	     26.07585938	     72.73180886	     51.89204273	      0.00000000	      0.00000000	     43.45233319	    -24.24643343	     18.06138895	     89.55416284	     50.65212768	      0.00000000	      0.00000000
      7.56000000	    -21.07081236	     -8.57494500	      1.51596485	      0.36360494	      1.12433087	     -0.26935844	      0.00000000	      0.50000000	      0.00000000	      0.25000000	     68.85748632	     -2.89857367	     -4.33673835	    108.70828240	      1.89731745	    -15.35430289	    -13.51593627	      0.00000000	      0.00000000	     40.08538454	     -8.10543192	      7.82323635	     37.11090131	      0.64770742	    -14.28726479	    -12.75894114	      0.00000000	      0.00000000	    -63.44939571	      5.85556649	     -0.43923367	     55.87900166	    -18.62162006	     26.51029279	     72.80033177	     51.95622757	      0.00000000	      0.00000000	     43.03768761	    -24.24829624	     17.70053546	     89.50757878	     50.62211978	      0.00000000	      0.00000000
